<?xml version="1.0" encoding="UTF-8"?>
<svg width="1174px" height="1006px" viewBox="0 0 1174 1006" version="1.1" xmlns="http://www.w3.org/2000/svg" xmlns:xlink="http://www.w3.org/1999/xlink">
    <title>app2</title>
    <g id="Page-1" stroke="none" stroke-width="1" fill="none" fill-rule="evenodd">
        <g id="app2" fill="#6E757C" fill-rule="nonzero">
            <path d="M1048.21429,0 L125.785714,0 C54.5071429,0 0,54.4916667 0,125.75 L0,880.25 C0,951.508333 54.5071429,1006 125.785714,1006 L1048.21429,1006 C1119.49286,1006 1174,951.508333 1174,880.25 L1174,125.75 C1174,54.4916667 1119.49286,0 1048.21429,0 Z M297.692857,150.9 C301.885714,146.708333 301.885714,142.516667 306.078571,138.325 C310.271429,134.133333 314.464286,129.941667 318.657143,129.941667 C335.428571,121.558333 352.2,125.75 364.778571,138.325 C368.971429,142.516667 373.164286,146.708333 373.164286,150.9 C377.357143,155.091667 377.357143,163.475 377.357143,167.666667 C377.357143,180.241667 373.164286,188.625 364.778571,197.008333 C356.392857,205.391667 348.007143,209.583333 335.428571,209.583333 C322.85,209.583333 314.464286,205.391667 306.078571,197.008333 C297.692857,188.625 293.5,180.241667 293.5,167.666667 C293.5,163.475 293.5,155.091667 297.692857,150.9 Z M167.714286,167.666667 C167.714286,155.091667 171.907143,146.708333 180.292857,138.325 C180.292857,138.325 184.485714,134.133333 184.485714,134.133333 C188.678571,134.133333 188.678571,129.941667 192.871429,129.941667 C197.064286,125.75 197.064286,125.75 201.257143,125.75 C205.45,125.75 213.835714,125.75 218.028571,125.75 C222.221429,125.75 222.221429,125.75 226.414286,129.941667 C230.607143,129.941667 230.607143,134.133333 234.8,134.133333 C234.8,134.133333 238.992857,138.325 238.992857,138.325 C243.185714,142.516667 247.378571,146.708333 247.378571,150.9 C251.571429,155.091667 251.571429,163.475 251.571429,167.666667 C251.571429,171.858333 251.571429,180.241667 247.378571,184.433333 C247.378571,188.625 243.185714,192.816667 238.992857,197.008333 C230.607143,205.391667 222.221429,209.583333 209.642857,209.583333 C197.064286,209.583333 188.678571,205.391667 180.292857,197.008333 C171.907143,188.625 167.714286,180.241667 167.714286,167.666667 Z M406.707143,616.175 L280.921429,741.925 C272.535714,750.308333 264.15,754.5 251.571429,754.5 C238.992857,754.5 230.607143,750.308333 222.221429,741.925 C205.45,725.158333 205.45,700.008333 222.221429,683.241667 L318.657143,586.833333 L222.221429,490.425 C205.45,473.658333 205.45,448.508333 222.221429,431.741667 C238.992857,414.975 264.15,414.975 280.921429,431.741667 L406.707143,557.491667 C423.478571,574.258333 423.478571,599.408333 406.707143,616.175 Z M431.864286,197.008333 C427.671429,192.816667 423.478571,188.625 423.478571,184.433333 C419.285714,180.241667 419.285714,171.858333 419.285714,167.666667 C419.285714,163.475 419.285714,155.091667 423.478571,150.9 C427.671429,146.708333 427.671429,142.516667 431.864286,138.325 C448.635714,121.558333 473.792857,121.558333 490.564286,138.325 C494.757143,142.516667 498.95,146.708333 498.95,150.9 C503.142857,155.091667 503.142857,163.475 503.142857,167.666667 C503.142857,171.858333 503.142857,180.241667 498.95,184.433333 C494.757143,188.625 494.757143,192.816667 490.564286,197.008333 C482.178571,205.391667 473.792857,209.583333 461.214286,209.583333 C457.021429,209.583333 448.635714,209.583333 444.442857,205.391667 C440.25,205.391667 436.057143,201.2 431.864286,197.008333 Z M670.857143,754.5 L503.142857,754.5 C477.985714,754.5 461.214286,737.733333 461.214286,712.583333 C461.214286,687.433333 477.985714,670.666667 503.142857,670.666667 L670.857143,670.666667 C696.014286,670.666667 712.785714,687.433333 712.785714,712.583333 C712.785714,737.733333 696.014286,754.5 670.857143,754.5 Z" id="Shape"></path>
        </g>
    </g>
</svg>